<svg width="17" height="21" viewBox="0 0 17 21" fill="none" xmlns="http://www.w3.org/2000/svg">
<path d="M8.5 0C4.15169 0 0.625 3.52669 0.625 7.875C0.625 12.9334 4.42846 15.1449 5.26923 16.1538C7.28846 18.5769 7.40257 21 8.5 21C9.59743 21 9.71154 18.5769 11.7308 16.1538C12.5715 15.1449 16.375 12.9334 16.375 7.875C16.375 3.52669 12.8483 0 8.5 0ZM8.5 13.125C5.60069 13.125 3.25 10.7743 3.25 7.875C3.25 4.97569 5.60069 2.625 8.5 2.625C11.3993 2.625 13.75 4.97569 13.75 7.875C13.75 10.7743 11.3993 13.125 8.5 13.125ZM8.5 5.25C7.051 5.25 5.875 6.426 5.875 7.875C5.875 9.324 7.051 10.5 8.5 10.5C9.949 10.5 11.125 9.324 11.125 7.875C11.125 6.426 9.949 5.25 8.5 5.25Z" fill="#FFD74B"/>
</svg>
