<svg xmlns="http://www.w3.org/2000/svg" xmlns:xlink="http://www.w3.org/1999/xlink" viewBox="0 0 25 24">
  <path
    d="M18.3 21a4.21 4.21 0 01-3.92-2.66 4.37 4.37 0 01.92-4.7 4.23 4.23 0 017.26 3.05c0 1.14-.45 2.24-1.25 3.05-.8.8-1.88 1.26-3 1.26zm0-7.13a2.75 2.75 0 00-2.55 1.74 2.85 2.85 0 00.6 3.07 2.76 2.76 0 004.73-2c0-.74-.3-1.45-.81-1.98a2.76 2.76 0 00-1.96-.82zM6.1 21a4.21 4.21 0 01-3.92-2.66 4.37 4.37 0 01.92-4.7 4.23 4.23 0 017.26 3.05c0 1.14-.45 2.24-1.25 3.05-.8.8-1.88 1.26-3 1.26zm0-7.13a2.75 2.75 0 00-2.56 1.74 2.85 2.85 0 00.6 3.07 2.76 2.76 0 004.74-2c0-.74-.3-1.45-.82-1.98a2.76 2.76 0 00-1.96-.82zM15.16 6a1.46 1.46 0 001.37-.93c.08-.18.11-.38.11-.57a1.5 1.5 0 00-.9-1.39 1.46 1.46 0 00-1.93.81 1.52 1.52 0 00.79 1.96c.18.08.37.12.56.12z"
    fill="#1D2E5B" />
  <path
    d="M17.36 9h-2.02a.18.18 0 01-.16-.1L13.7 6.18a1.45 1.45 0 00-1.05-.77 1.41 1.41 0 00-1.23.4L8.2 9.11c-.27.28-.43.66-.43 1.05 0 .82.58 1.1.85 1.27a146.32 146.32 0 012.82 1.72c.02.02.03.06.03.09v3.24c0 .4.3.75.7.77a.73.73 0 00.72-.45c.04-.1.06-.2.06-.3v-4.03a.76.76 0 00-.31-.61l-1.71-1.25a.19.19 0 01-.08-.13.19.19 0 01.05-.15l1.94-2.1a.19.19 0 01.16-.06.18.18 0 01.14.1l1 1.84a.74.74 0 00.65.39h2.6a.73.73 0 00.53-.23.75.75 0 00-.56-1.27z"
    fill="#1D2E5B" />
</svg>
