<svg xmlns="http://www.w3.org/2000/svg" xmlns:xlink="http://www.w3.org/1999/xlink" viewBox="0 0 18 21">
  <g clip-path="url(#clip557)">
    <path
        d="M4.34 13.95c0-.38-.14-.7-.42-.97a1.4 1.4 0 00-1-.4c-.4 0-.73.13-1 .4-.28.27-.42.59-.42.97s.14.7.42.97c.27.27.6.4 1 .4s.73-.13 1-.4c.28-.27.42-.6.42-.97zm11.36 0c0-.38-.14-.7-.42-.97a1.4 1.4 0 00-1-.4c-.4 0-.73.13-1 .4-.28.27-.42.59-.42.97s.14.7.41.97c.28.27.61.4 1 .4.4 0 .73-.13 1.01-.4s.42-.6.42-.97zm-.51-4.24l-.8-4.12a.7.7 0 00-.25-.4.7.7 0 00-.45-.16H3.5a.7.7 0 00-.45.16.7.7 0 00-.25.4l-.8 4.12c-.04.21.02.4.16.56.14.17.32.25.54.25h11.78c.22 0 .4-.08.54-.25.14-.16.2-.35.16-.56zm-2.51-6.56a.52.52 0 00-.53-.51h-7.1a.52.52 0 00-.38.14c-.1.1-.15.23-.15.37 0 .14.05.26.15.36.1.1.23.15.38.15h7.1a.52.52 0 00.53-.51zm4.43 7.77v6.46H15.7v1.37c0 .38-.14.7-.42.97-.28.27-.61.4-1 .4-.4 0-.73-.13-1-.4a1.3 1.3 0 01-.42-.97v-1.37H4.34v1.37c0 .38-.14.7-.42.97-.27.27-.6.4-1 .4s-.73-.13-1-.4a1.3 1.3 0 01-.42-.97v-1.37H.08v-6.46c0-.8.1-1.6.28-2.4L1.5 3.67c.07-.55.43-1.04 1.08-1.47.66-.42 1.5-.73 2.55-.95A17.3 17.3 0 018.6.92c1.26 0 2.42.1 3.46.32 1.05.22 1.9.53 2.55.95.66.43 1.02.92 1.09 1.47l1.16 4.87c.17.73.25 1.52.25 2.39z"
        fill="#1D2E5B" />
  </g>
  <defs>
    <clipPath id="clip557">
      <path
        transform="translate(.08 .92)" d="M0 0h17.04v19.2H0z" />
    </clipPath>
  </defs>
</svg>
