<svg xmlns="http://www.w3.org/2000/svg" xmlns:xlink="http://www.w3.org/1999/xlink" viewBox="0 0 21 24">
  <path
    d="M14.98 5.76c.95 0 1.72-.86 1.72-1.92s-.77-1.92-1.72-1.92-1.73.86-1.73 1.92.78 1.92 1.73 1.92zM13.92 10.53c.2.33.48.58.81.72.34.15.7.17 1.04.08l2.86-.8-.42-1.86-2.85.8-1.2-1.99a1.73 1.73 0 00-1.09-.82l-3.3-.74a1.56 1.56 0 00-1.1.16c-.34.18-.61.49-.78.87l-1.43 3.18 1.54.86L9.43 7.8l1.69.38-4.38 8.14H2.93v1.92h3.81c.6 0 1.17-.36 1.48-.93l1.65-3.07 4.45 1 1.56 5.22 1.63-.6-1.56-5.23c-.1-.33-.27-.61-.5-.84-.22-.22-.5-.37-.8-.44l-2.61-.58 1.52-2.84.36.6z"
    fill="#1D2E5B" />
</svg>
