<svg xmlns="http://www.w3.org/2000/svg" xmlns:xlink="http://www.w3.org/1999/xlink" viewBox="0 0 21 23">
  <g clip-path="url(#clip412)">
    <path
      d="M16.78 2.1c-.73.17-1.46.34-1.73.82l-2.1 4.2L1.62 9.8l-.46 1.34 8.66.82-1.47 3.63-3.28.78-.83 1.43 2.37.26.27 1.17c.12.41.55.69.9.6l1.1-.26 1.27 2.16.83-1.43-.81-3.5 2.37-3.03 4.54 7.96.91-1.04-2.79-12.07 2.57-3.9c.27-.47.1-1.25-.09-2.03-.09-.39-.54-.7-.9-.6z"
      fill="#101D41" />
  </g>
  <defs>
    <clipPath id="clip412">
      <path
        transform="translate(0 .96)" d="M0 0h20.83v21.12H0z" />
    </clipPath>
  </defs>
</svg>
