<svg width="18" height="18" viewBox="0 0 18 18" fill="none" xmlns="http://www.w3.org/2000/svg">
<g opacity="0.5">
<path d="M12.9601 1.80061C13.8188 1.80251 14.6418 2.14448 15.249 2.75169C15.8562 3.35889 16.1982 4.18189 16.2001 5.04061V12.9606C16.1982 13.8193 15.8562 14.6423 15.249 15.2495C14.6418 15.8567 13.8188 16.1987 12.9601 16.2006H5.04009C4.18262 16.1968 3.36147 15.854 2.75581 15.247C2.15016 14.64 1.80919 13.8181 1.80729 12.9606V5.04061C1.80919 4.18314 2.15016 3.36122 2.75581 2.75422C3.36147 2.14722 4.18262 1.80441 5.04009 1.80061H12.9601ZM12.9601 0.720612H5.04009C3.89436 0.720612 2.79555 1.17575 1.98539 1.98591C1.17523 2.79607 0.720093 3.89488 0.720093 5.04061L0.720093 12.9606C0.720093 14.1063 1.17523 15.2052 1.98539 16.0153C2.79555 16.8255 3.89436 17.2806 5.04009 17.2806H12.9601C14.1058 17.2806 15.2046 16.8255 16.0148 16.0153C16.8249 15.2052 17.2801 14.1063 17.2801 12.9606V5.04061C17.2801 3.89488 16.8249 2.79607 16.0148 1.98591C15.2046 1.17575 14.1058 0.720612 12.9601 0.720612V0.720612Z" fill="#192144"/>
<path d="M9.00703 5.81737C9.63787 5.81737 10.2545 6.00444 10.7791 6.35492C11.3036 6.7054 11.7124 7.20354 11.9538 7.78637C12.1953 8.36919 12.2584 9.01051 12.1353 9.62923C12.0123 10.248 11.7085 10.8163 11.2624 11.2624C10.8163 11.7084 10.248 12.0122 9.62929 12.1353C9.01057 12.2584 8.36924 12.1952 7.78642 11.9538C7.2036 11.7124 6.70545 11.3035 6.35497 10.779C6.00449 10.2545 5.81743 9.63782 5.81743 9.00697C5.81648 8.58784 5.89833 8.17265 6.05829 7.78524C6.21824 7.39784 6.45315 7.04584 6.74952 6.74947C7.04589 6.4531 7.39789 6.21819 7.7853 6.05823C8.17271 5.89828 8.5879 5.81642 9.00703 5.81737ZM9.00703 4.73737C8.16228 4.73595 7.33609 4.98514 6.63301 5.45343C5.92993 5.92171 5.38156 6.58803 5.0573 7.36807C4.73304 8.14811 4.64746 9.00681 4.81139 9.83551C4.97532 10.6642 5.38139 11.4256 5.97822 12.0235C6.57504 12.6213 7.3358 13.0287 8.16422 13.194C8.99264 13.3593 9.85148 13.2752 10.6321 12.9523C11.4127 12.6293 12.0799 12.0821 12.5494 11.3798C13.0188 10.6775 13.2694 9.85173 13.2694 9.00697C13.2704 8.44662 13.1608 7.89158 12.947 7.37361C12.7333 6.85564 12.4194 6.38491 12.0236 5.98835C11.6277 5.59178 11.1575 5.27717 10.6398 5.06252C10.1222 4.84786 9.56738 4.73737 9.00703 4.73737Z" fill="#192144"/>
<path d="M13.4282 5.55936C13.961 5.55936 14.393 5.12741 14.393 4.59456C14.393 4.06172 13.961 3.62976 13.4282 3.62976C12.8953 3.62976 12.4634 4.06172 12.4634 4.59456C12.4634 5.12741 12.8953 5.55936 13.4282 5.55936Z" fill="#192144"/>
</g>
</svg>
