<svg width="17" height="14" viewBox="0 0 17 14" fill="none" xmlns="http://www.w3.org/2000/svg">
<path d="M1.0166 2.32528L7.7666 6.55572C7.9934 6.69747 8.2868 6.76467 8.582 6.76467C8.8772 6.76467 9.1706 6.69747 9.3974 6.55572L16.1474 2.32528C16.5875 2.04913 17.0033 0.974976 16.196 0.974976H0.968901C0.161601 0.974976 0.577401 2.04913 1.0166 2.32528ZM16.3517 4.63842L9.3974 8.86677C9.0914 9.05367 8.8772 9.07572 8.582 9.07572C8.2868 9.07572 8.0726 9.05367 7.7666 8.86677C7.4606 8.67987 1.3469 4.94082 0.847401 4.63737C0.496401 4.42317 0.500001 4.67412 0.500001 4.86732V12.525C0.500001 12.966 1.0094 13.575 1.4 13.575H15.8C16.1906 13.575 16.7 12.966 16.7 12.525V4.86837C16.7 4.67517 16.7036 4.42422 16.3517 4.63842Z" fill="#161C35"/>
</svg>
