<svg width="17" height="15" viewBox="0 0 17 15" fill="none" xmlns="http://www.w3.org/2000/svg">
<path fill-rule="evenodd" clip-rule="evenodd" d="M8.49995 0.0861511C5.7035 0.0861511 2.90033 0.558819 1.88322 1.50093C1.03934 2.28252 0.758038 3.66329 0.663214 4.53753C0.663214 4.53753 0.650146 4.62393 0.650146 4.66109C0.650146 5.00391 0.944447 5.27887 1.30427 5.27887C1.34678 5.27887 2.92002 5.15837 3.86851 5.08425C3.89134 5.08112 3.91434 5.07806 3.93716 5.07191C4.29043 5.0627 4.57505 4.7908 4.57505 4.45413L4.57822 3.237C4.57822 2.86014 4.90214 2.55737 5.3012 2.55737H11.6987C12.0978 2.55737 12.4218 2.86011 12.4218 3.237L12.425 4.45413C12.425 4.7908 12.7095 5.0627 13.0628 5.07191C13.0854 5.0781 13.1085 5.08112 13.1315 5.08425C14.0801 5.15834 15.6533 5.27887 15.6957 5.27887C16.0553 5.27887 16.3499 5.00391 16.3499 4.66109C16.3499 4.62393 16.3368 4.53753 16.3368 4.53753C16.2419 3.66329 15.9609 2.28255 15.117 1.50093C14.0996 0.558819 11.2964 0.0861511 8.49995 0.0861511ZM8.49995 8.11773C7.7771 8.11773 7.19164 8.67064 7.19164 9.35333C7.19164 10.036 7.7771 10.5889 8.49995 10.5889C9.22279 10.5889 9.80823 10.036 9.80823 9.35333C9.80823 8.67064 9.22279 8.11773 8.49995 8.11773ZM7.51873 5.33752V4.56528C7.51873 4.13902 7.15236 3.79304 6.70106 3.79304C6.24977 3.79304 5.8834 4.13905 5.8834 4.56528V5.33752L1.47095 9.7889C1.16689 10.07 0.977135 10.4622 0.977135 10.8948V12.1335C0.977135 12.8162 1.56264 13.3691 2.28545 13.3691H2.61254V14.1414C2.61254 14.5677 2.97895 14.9136 3.43025 14.9136C3.88154 14.9136 4.24792 14.5677 4.24792 14.1414V13.3691H12.752V14.1414C12.752 14.5677 13.1182 14.9136 13.5697 14.9136C14.021 14.9136 14.3873 14.5677 14.3873 14.1414V13.3691H14.7144C15.4373 13.3691 16.0227 12.8162 16.0227 12.1335V10.8948C16.0227 10.4622 15.833 10.07 15.5289 9.7889L11.1166 5.33752V4.56528C11.1166 4.13902 10.7502 3.79304 10.2989 3.79304C9.84757 3.79304 9.48124 4.13905 9.48124 4.56528V5.33752H7.51873ZM8.49995 6.8821C9.94564 6.8821 11.1166 7.98799 11.1166 9.35333C11.1166 10.7187 9.94567 11.8247 8.49995 11.8247C7.05426 11.8247 5.88336 10.7187 5.88336 9.35333C5.88336 7.98795 7.05426 6.8821 8.49995 6.8821Z" fill="#FFD74B"/>
</svg>
