<svg width="17" height="17" viewBox="0 0 17 17" fill="none" xmlns="http://www.w3.org/2000/svg">
<path d="M11.9047 8.25661C11.9047 8.44223 12.0583 8.59411 12.2461 8.59411C12.4339 8.59411 12.5875 8.44223 12.5875 8.25661C12.5875 6.36324 11.0308 4.82424 9.11565 4.82424C8.9279 4.82424 8.77427 4.97612 8.77427 5.16174C8.77427 5.35074 8.9279 5.49924 9.11565 5.49924C10.6553 5.49924 11.9047 6.73786 11.9047 8.25661ZM9.11565 0.699982C8.9279 0.699982 8.77427 0.851861 8.77427 1.03748C8.77427 1.22312 8.9279 1.37498 9.11565 1.37498C12.9562 1.37498 16.0798 4.46312 16.0798 8.25661C16.0798 8.44223 16.23 8.59411 16.4212 8.59411C16.6089 8.59411 16.7626 8.44223 16.7626 8.25661C16.7626 4.0885 13.3317 0.699982 9.11565 0.699982ZM12.4509 11.8139L12.0037 12.0535C11.2493 12.4619 10.6622 13.5812 9.73116 12.7375L7.30011 10.3L5.20004 8.25661C4.14495 6.92348 5.32635 6.60623 5.73941 5.85699L5.98179 5.41825C6.25489 4.91873 6.35388 4.35849 6.27196 3.79823C6.19345 3.23799 5.93741 2.72836 5.52775 2.32336C5.02935 1.83062 4.36707 1.56062 3.66042 1.56062C2.95376 1.56062 2.28807 1.83062 1.78964 2.32336L1.61556 2.49886C0.693831 3.41012 0.588004 4.97948 1.31514 6.92348C2.0013 8.77973 3.3839 10.7912 5.20004 12.5867C7.96862 15.3239 11.0513 16.9 13.2634 16.9C14.1373 16.9 14.8781 16.6536 15.4039 16.1339L15.5814 15.9584C16.0764 15.469 16.3529 14.8142 16.3563 14.1089C16.3529 13.4204 16.0695 12.7454 15.5814 12.2627C14.7587 11.4494 13.4717 11.2671 12.4509 11.8139Z" fill="#161C35"/>
</svg>
